<?xml version="1.0" encoding="utf-8"?><svg version="1.1" id="Layer_1" xmlns="http://www.w3.org/2000/svg" xmlns:xlink="http://www.w3.org/1999/xlink" x="0px" y="0px" viewBox="0 0 148 148" width="148px" height="148px" style="enable-background:new 0 0 148 148;" xml:space="preserve"><style type="text/css"> .st01510798478162{fill:#cccccc;} .st11510798478162{display:none;fill:#0073e9;} .st21510798478162{fill:#0073e9;} .st31510798478162{fill:#888888;} .st41510798478162{fill:#aaa9a9;} .st51510798478162{fill:#aaaaaa;} .st61510798478162{fill:#0074e9;} .st71510798478162{fill:#f4f4f4;} .st81510798478162{fill:#333333;} </style><g id="svg__member__sprite--email"><path class="st01510798478162" d="M1,1v16h20V1H1z M11,9.9L4.5,3h13.4L11,9.9z M7.6,9L3,13.7V4.2L7.6,9z M9.1,10.3l1.8,2l0.2-0.1v0.1l2-2.2 l4.8,5H4.3L9.1,10.3z M14.5,8.7L19,4.2v9.4L14.5,8.7z"/></g><g id="svg__member__sprite--password"><g><path class="st01510798478162" d="M40,8V6.7C40,3.5,37.8,1,34.7,1h-5.3C26.2,1,24,3.5,24,6.7V8h-2v13h20V8H40z M26,6.7c0-2,1.3-3.7,3.3-3.7h5.3 c2,0,3.3,1.6,3.3,3.7V8H26V6.7z M40,19H24v-9h16V19z"/><path class="st01510798478162" d="M31,15.1V17h2v-1.9c0.6-0.3,1-1,1-1.7c0-1.1-0.9-2-2-2c-1.1,0-2,0.9-2,2C30,14.1,30.4,14.7,31,15.1z"/></g></g><g id="svg__member__sprite--password-confirm"><g><path class="st01510798478162" d="M61,8V6.7C61,3.5,58.8,1,55.7,1h-5.3C47.2,1,45,3.5,45,6.7V8h-2v13h20V8H61z M47,6.7c0-2,1.3-3.7,3.3-3.7h5.3 c2,0,3.3,1.6,3.3,3.7V8H47V6.7z M45,19v-9h16v9H45z"/><polygon class="st01510798478162" points="55.3,11.6 52.3,14.6 50.9,13.2 49.5,14.6 52.4,17.4 53.1,16.7 56.7,13 "/></g></g><g id="svg__member__sprite--name"><path class="st01510798478162" d="M14.9,34.1c1.7-1.2,2.8-3.2,2.8-5.4c0-3.7-3-6.7-6.7-6.7s-6.7,3-6.7,6.7c0,2.2,1.1,4.2,2.7,5.4 c-3.3,0.4-6,3.3-6,6.9v1h20v-1C21,37.4,18.4,34.5,14.9,34.1z M11.1,24c2.6,0,4.7,2.1,4.7,4.7s-2.1,4.7-4.7,4.7s-4.7-2.1-4.7-4.7 S8.5,24,11.1,24z M3.2,40c0.5-2,2.5-4,4.9-4h6c2.4,0,4.4,2,4.9,4H3.2z"/></g><g id="svg__member__sprite--phone"><path class="st01510798478162" d="M22,22v20h16V22H22z M36,24v12H24V24H36z M29.1,39c0-0.6,0.4-1,1-1s1,0.4,1,1s-0.4,1-1,1 C29.6,40,29.1,39.6,29.1,39z"/></g><g id="svg__member__sprite--valid"><polygon class="st11510798478162" points="84,3 82.1,1 71.6,11 65.9,5 64,7 71.6,15 74.6,12.2 74.6,12.2 "/><polygon class="st21510798478162" points="84,3.8 81.2,1 71.9,10.3 66.8,5.3 64,8 71.9,15.9 74.7,13.1 74.7,13.1 "/></g><g id="svg__member__sprite--cash"><g><path class="st31510798478162" d="M5,47v30h62V47H5z M65,75H7V49h58V75z"/><polygon class="st31510798478162" points="63,43 1,43 1,45 1,73 3,73 3,45 63,45 "/><rect x="9" y="51" class="st31510798478162" width="8" height="1"/><rect x="51" y="72" class="st31510798478162" width="12" height="1"/></g></g><g id="svg__member__sprite--show-password"><g><path class="st41510798478162" d="M116.2,14c1.5,0,3.1-1.4,4.6-3.9c-1.7-1.4-3.6-2.2-5.5-2.1c-1.5,0.1-2.9,0.7-4.2,1.9 C112.9,12.6,114.6,14,116.2,14z M116,8.5c1.4,0,2.5,1.1,2.5,2.5s-1.1,2.5-2.5,2.5s-2.5-1.1-2.5-2.5S114.6,8.5,116,8.5z"/><path class="st41510798478162" d="M116,1c-5.5,0-10,4.5-10,10s4.5,10,10,10s10-4.5,10-10S121.5,1,116,1z M122.2,11.6L122.2,11.6 c-1.9,2.9-3.9,4.3-6,4.4h-0.1c-2.2,0-4.3-1.5-6.3-4.5l-1.6-1.1c2.3-3.5,5.1-4.3,7-4.4c3.1-0.2,6.2,1.4,8.6,4.4L122.2,11.6z"/></g></g><g id="svg__member__sprite--hide-password"><path class="st41510798478162" d="M137,1c-5.5,0-10,4.5-10,10s4.5,10,10,10s10-4.5,10-10S142.5,1,137,1z M137.2,16h-0.1c-3,0-5.8-1.9-8-5.5 l1.7-1c1.8,2.9,4,4.5,6.3,4.5c2.2,0,4.3-1.6,5.9-4.5l1.7,1C142.9,14,140.2,16,137.2,16z"/></g><g id="svg__member__sprite--right-arrow"><path class="st51510798478162" d="M95,1c-5.5,0-10,4.5-10,10s4.5,10,10,10s10-4.5,10-10S100.5,1,95,1z M101,15.5L99.5,17L95,12.5L90.5,17 L89,15.5l4.5-4.5L89,6.5L90.5,5L95,9.5L99.5,5l1.5,1.5L96.5,11L101,15.5z"/></g><g id="svg__member__sprite--empty-trigger"><polygon class="st21510798478162" points="103.1,22 102,23.1 107.8,29 102,34.9 103.1,36 110,29 "/></g><g id="svg__member__sprite--checkbox-checked"><polygon class="st61510798478162" points="101,23.5 99.5,22 90.3,31 86.5,27.3 85,28.7 88.8,32.5 88.8,32.5 90.3,34 90.3,34 90.3,34 91.8,32.5 91.8,32.5 "/></g><g id="svg__member__sprite--triangle"><polygon id="XMLID_1_" class="st71510798478162" points="116,22 111,28 111,30 121,30 121,28 "/></g><g id="svg__member__sprite--mic-black"><path id="_x3C_Path_x3E_" class="st81510798478162" d="M82,71.2c-5.5,0-10.6-4.2-10.6-10.2H68c0,6.8,5.4,12.5,12,13.4V81h4v-6.6 c6.6-1,12-6.6,12-13.4h-3.4C92.6,67,87.5,71.2,82,71.2z M88,61V49c0-3.3-2.7-6-6-6s-6,2.7-6,6v12c0,3.3,2.7,6,6,6S88,64.3,88,61z" /></g><g id="svg__member__sprite--phone-black"><path class="st81510798478162" d="M1,78v20h16V78H1z M15,80v12H3V80H15z M8.1,95c0-0.6,0.4-1,1-1s1,0.4,1,1s-0.4,1-1,1C8.6,96,8.1,95.6,8.1,95z" /></g><g id="svg__member__sprite--desktop-black"><path class="st81510798478162" d="M38,78H18v14h7.5L25,94h-2v2h10v-2h-2l-0.5-2H38V78z M36,90H20V80h16V90z"/></g></svg> 